# xmcd CD database file
#
# Track frame offsets:
#	150
#	14254
#	29374
#	44150
#	55491
#	74560
#	88359
#	103675
#	122393
#	138070
#	155922
#
# Disc length: 2282 seconds
#
# Revision: 0
# Processed by: cddbd v1.5.2PL0 Copyright (c) Steve Scherf et al.
# Submitted via: CDex 1.51
#
DISCID=9f08e80b
DTITLE=Stars of Studio 99 - A Tribute to Norah Jones
DYEAR=2007
DGENRE=Blues
TTITLE0=Don't Know Why
TTITLE1=Come Away With Me
TTITLE2=Sunrise
TTITLE3=Turn Me On
TTITLE4=I've Got To See You Again
TTITLE5=Don't Miss You At All
TTITLE6=Cold Cold Heart
TTITLE7=In The Mornin'
TTITLE8=Not Too Late
TTITLE9=Shoot The Moon
TTITLE10=Those Sweet Words
EXTD=YEAR: 2007
EXTT0=
EXTT1=
EXTT2=
EXTT3=
EXTT4=
EXTT5=
EXTT6=
EXTT7=
EXTT8=
EXTT9=
EXTT10=
PLAYORDER=
